<?xml version="1.0" encoding="utf-8"?>
<!-- Svg Vector Icons : http://www.onlinewebfonts.com/icon -->
<!DOCTYPE svg PUBLIC "-//W3C//DTD SVG 1.1//EN" "http://www.w3.org/Graphics/SVG/1.1/DTD/svg11.dtd">
<svg version="1.1" xmlns="http://www.w3.org/2000/svg" xmlns:xlink="http://www.w3.org/1999/xlink" x="0px" y="0px" viewBox="0 0 1000 1000" enable-background="new 0 0 1000 1000" xml:space="preserve">
<metadata> Svg Vector Icons : http://www.onlinewebfonts.com/icon </metadata>
<g><g><g><g><path d="M829.2,664.9c-36.4,0-69.8,12.2-96.8,32.6L331.2,503.6l0.4-7.3l400.8-193.7c26.9,20.4,60.3,32.6,96.8,32.6c88.9,0,160.9-72,160.9-160.9c0-88.9-72-160.9-160.8-160.9c-88.9,0-160.9,72-160.9,160.9v0.1L271,366.4c-27.5-21.9-62.3-35.2-100.1-35.2C82,331.3,10,403.3,10,492.2C10,581,82,653,170.9,653c32.1,0,62-9.5,87.1-25.7l410.3,198.3v0.2c0,88.8,72,160.9,160.9,160.9c88.9,0,160.8-72,160.8-160.9C990,736.9,918,664.9,829.2,664.9z"/></g></g></g><g></g><g></g><g></g><g></g><g></g><g></g><g></g><g></g><g></g><g></g><g></g><g></g><g></g><g></g><g></g></g>
</svg>